<svg viewBox="0 0 48 56" xmlns="http://www.w3.org/2000/svg">
  <path d="M24 4C13.5 4 6 12 6 22c0 7 4 12.5 8.5 16v6c0 1.5 1 2.5 2.5 2.5h14c1.5 0 2.5-1 2.5-2.5v-6C38 34.5 42 29 42 22 42 12 34.5 4 24 4Z" fill="#0B1387"/>
  <path d="M24 4C34.5 4 42 12 42 22c0 7-4 12.5-8.5 16v6c0 1.5-1 2.5-2.5 2.5h-7V4.05C24 4.03 24 4.02 24 4Z" fill="#F2A900"/>
  <rect x="17.5" y="50" width="13" height="2.5" rx="1.25" fill="#0F4D2E"/>
  <rect x="18.5" y="53.5" width="11" height="2.5" rx="1.25" fill="#0F4D2E"/>
</svg>
